<svg id="kodex-pointer" xmlns="http://www.w3.org/2000/svg" width="97" height="56" viewBox="0 0 97 56"><defs><linearGradient id="vxwea" x1="75.15" x2="70.61" y1="38.94" y2="13.18" gradientUnits="userSpaceOnUse"><stop offset="0" stop-color="#000"></stop><stop offset="1" stop-color="#000"></stop></linearGradient></defs><g><g><g opacity=".2" transform="rotate(93 48.305 30.065)"><path d="M50.82 76.62C63.599 50.84 72.806 14.953 72.806 5.479c0-12.978-10.97-23.499-24.503-23.499C34.77-18.02 23.8-7.5 23.8 5.479c0 9.474 9.207 45.36 21.984 71.14 1.015 2.049 4.021 2.049 5.037 0z"></path></g><g transform="rotate(93 48.305 24.065)"><path id="kodex-pointer-color" fill="#c32262" d="M50.82 70.62C63.599 44.84 72.806 8.953 72.806-.521c0-12.978-10.97-23.499-24.503-23.499C34.77-24.02 23.8-13.5 23.8-.521c0 9.474 9.207 45.36 21.984 71.14 1.015 2.049 4.021 2.049 5.037 0z" style="fill: #FFF;"></path></g><g opacity=".5" transform="rotate(93 48.9 12.56)"><path fill="#fff" d="M60.34-35.44c-13.528 0-24.495 10.501-24.495 23.456 0 9.457 9.204 45.278 21.978 71.01.797 1.605 2.82 1.95 4.143 1.036a2.707 2.707 0 0 1-1.148-1.192C48.044 33.137 38.84-2.684 38.84-12.141c0-12.03 9.458-21.945 21.642-23.299h-.141z"></path></g><g transform="rotate(-59 72.88 26.06)"><path fill="url(#vxwea)" d="M75.15 13.18C68.036 11.928 61.254 16.677 60 23.789c-1.253 7.112 3.496 13.894 10.608 15.149 7.112 1.254 13.894-3.495 15.149-10.608 1.254-7.112-3.495-13.894-10.608-15.148z"></path></g></g></g></svg>